<svg xmlns="http://www.w3.org/2000/svg" viewBox="1350.881 3163 344.019 140">
  <defs>
    <style>
      .cls-1 {
        fill: #c4c4c4;
      }

      .cls-1, .cls-2, .cls-3, .cls-4, .cls-5, .cls-6, .cls-7, .cls-8 {
        stroke: #46494c;
      }

      .cls-1, .cls-2, .cls-3, .cls-4, .cls-5, .cls-6, .cls-8 {
        stroke-width: 4px;
      }

      .cls-2 {
        fill: #5bc0eb;
      }

      .cls-10, .cls-14, .cls-3 {
        fill: #ed9390;
      }

      .cls-4 {
        fill: #a9e5bb;
      }

      .cls-11, .cls-15, .cls-5 {
        fill: #f1fffa;
      }

      .cls-6 {
        fill: #fff;
      }

      .cls-7 {
        fill: #46494c;
        stroke-width: 2px;
      }

      .cls-8 {
        fill: #fcf99f;
      }

      .cls-9 {
        fill: #48e5c2;
        stroke: #48e5c2;
      }

      .cls-12, .cls-14, .cls-15 {
        stroke: none;
      }

      .cls-13 {
        fill: none;
      }
    </style>
  </defs>
  <g id="Symbol_13_1" data-name="Symbol 13 – 1" transform="translate(1344 2751)">
    <g id="Rectangle_16" data-name="Rectangle 16" class="cls-1" transform="translate(82.881 412)">
      <rect class="cls-12" width="200" height="120" rx="6"/>
      <rect class="cls-13" x="2" y="2" width="196" height="116" rx="4"/>
    </g>
    <g id="Rectangle_18" data-name="Rectangle 18" class="cls-2" transform="translate(29.881 472)">
      <rect class="cls-12" width="20" height="80" rx="3"/>
      <rect class="cls-13" x="2" y="2" width="16" height="76" rx="1"/>
    </g>
    <g id="Rectangle_19" data-name="Rectangle 19" class="cls-3" transform="translate(52.881 432)">
      <rect class="cls-12" width="18" height="120" rx="3"/>
      <rect class="cls-13" x="2" y="2" width="14" height="116" rx="1"/>
    </g>
    <g id="Rectangle_20" data-name="Rectangle 20" class="cls-1" transform="translate(152.881 532)">
      <rect class="cls-12" width="60" height="20" rx="6"/>
      <rect class="cls-13" x="2" y="2" width="56" height="16" rx="4"/>
    </g>
    <path id="Path_6" data-name="Path 6" class="cls-4" d="M1915.974,1911.406l10.949-18.462s12.957,23.824,12.4,35.023-3.756,23.033-10.6,36.086-6.019,10.9-6.019,10.9-5.881-18.248-4.464-18.466" transform="translate(-1597.119 -1474)"/>
    <path id="Path_5" data-name="Path 5" class="cls-5" d="M1910,1895.3s-20.453,23.986-12,45.311,17.88,33.369,17.88,33.369,6.25-28.678,4.044-44.855S1910,1895.3,1910,1895.3Z" transform="translate(-1597.119 -1474)"/>
    <g id="Rectangle_26" data-name="Rectangle 26" class="cls-6" transform="translate(92.881 422)">
      <rect class="cls-12" width="180" height="100"/>
      <rect class="cls-13" x="2" y="2" width="176" height="96"/>
    </g>
    <rect id="Rectangle_24" data-name="Rectangle 24" class="cls-3" width="24" height="24" rx="2" transform="translate(97.914 515.016) rotate(17)"/>
    <g id="Rectangle_28" data-name="Rectangle 28" class="cls-7" transform="translate(215.881 434)">
      <rect class="cls-12" width="42" height="77" rx="4"/>
      <rect class="cls-13" x="1" y="1" width="40" height="75" rx="3"/>
    </g>
    <rect id="Rectangle_25" data-name="Rectangle 25" class="cls-8" width="24" height="24" rx="2" transform="translate(117.914 515.016) rotate(17)"/>
    <g id="Rectangle_29" data-name="Rectangle 29" class="cls-7" transform="translate(105.881 434)">
      <rect class="cls-12" width="102" height="77" rx="4"/>
      <rect class="cls-13" x="1" y="1" width="100" height="75" rx="3"/>
    </g>
    <path id="Path_17" data-name="Path 17" class="cls-3" d="M1164.731,3842.775h54.625l-3.088,10.641-48.738-.318Z" transform="translate(-871.119 -3349.775)"/>
    <path id="Path_18" data-name="Path 18" class="cls-3" d="M1170.151,3865h46.036l-8.975,34.063h-28.374Z" transform="translate(-871.906 -3354.56)"/>
    <g id="Rectangle_17" data-name="Rectangle 17" class="cls-8" transform="translate(6.881 452)">
      <rect class="cls-12" width="20" height="100" rx="3"/>
      <rect class="cls-13" x="2" y="2" width="16" height="96" rx="1"/>
    </g>
    <g id="Rectangle_36" data-name="Rectangle 36" class="cls-9" transform="translate(115 444)">
      <rect class="cls-12" width="30" height="5.429" rx="2.714"/>
      <rect class="cls-13" x="0.5" y="0.5" width="29" height="4.429" rx="2.214"/>
    </g>
    <g id="Path_27" data-name="Path 27" class="cls-10" transform="translate(115 454.857)">
      <path class="cls-12" d="M 42.75 4.928575992584229 L 2.25 4.928575992584229 C 1.28505003452301 4.928575992584229 0.5 3.935245752334595 0.5 2.714285850524902 C 0.5 1.49332582950592 1.28505003452301 0.4999958574771881 2.25 0.4999958574771881 L 42.75 0.4999958574771881 C 43.71495056152344 0.4999958574771881 44.5 1.49332582950592 44.5 2.714285850524902 C 44.5 3.935245752334595 43.71495056152344 4.928575992584229 42.75 4.928575992584229 Z"/>
      <path class="cls-14" d="M 42.75 4.428575992584229 C 43.42757034301758 4.428575992584229 44 3.643525838851929 44 2.714285850524902 C 44 1.785045862197876 43.42757034301758 0.9999958276748657 42.75 0.9999958276748657 L 2.25 0.9999958276748657 C 1.572430014610291 0.9999958276748657 1 1.785045862197876 1 2.714285850524902 C 1 3.643525838851929 1.572430014610291 4.428575992584229 2.25 4.428575992584229 L 42.75 4.428575992584229 M 42.75 5.428575992584229 L 2.25 5.428575992584229 C 1.007359981536865 5.428575992584229 -3.552713678800501e-15 4.213346004486084 -3.552713678800501e-15 2.714285850524902 C -3.552713678800501e-15 1.21522581577301 1.007359981536865 -4.149474989390001e-06 2.25 -4.149474989390001e-06 L 42.75 -4.149474989390001e-06 C 43.99264144897461 -4.149474989390001e-06 45 1.21522581577301 45 2.714285850524902 C 45 4.213346004486084 43.99264144897461 5.428575992584229 42.75 5.428575992584229 Z"/>
    </g>
    <g id="Path_28" data-name="Path 28" class="cls-11" transform="translate(115 465.714)">
      <path class="cls-12" d="M 12.75 4.928575992584229 L 2.25 4.928575992584229 C 1.28505003452301 4.928575992584229 0.5 3.935245752334595 0.5 2.714285850524902 C 0.5 1.49332582950592 1.28505003452301 0.4999958574771881 2.25 0.4999958574771881 L 12.75 0.4999958574771881 C 13.71494960784912 0.4999958574771881 14.5 1.49332582950592 14.5 2.714285850524902 C 14.5 3.935245752334595 13.71494960784912 4.928575992584229 12.75 4.928575992584229 Z"/>
      <path class="cls-15" d="M 12.75 4.428575992584229 C 13.42757034301758 4.428575992584229 14 3.643525838851929 14 2.714285850524902 C 14 1.785045862197876 13.42757034301758 0.9999958276748657 12.75 0.9999958276748657 L 2.25 0.9999958276748657 C 1.572430014610291 0.9999958276748657 1 1.785045862197876 1 2.714285850524902 C 1 3.643525838851929 1.572430014610291 4.428575992584229 2.25 4.428575992584229 L 12.75 4.428575992584229 M 12.75 5.428575992584229 L 2.25 5.428575992584229 C 1.007359981536865 5.428575992584229 -8.881784197001252e-16 4.213346004486084 -8.881784197001252e-16 2.714285850524902 C -8.881784197001252e-16 1.21522581577301 1.007359981536865 -4.149474989390001e-06 2.25 -4.149474989390001e-06 L 12.75 -4.149474989390001e-06 C 13.99263954162598 -4.149474989390001e-06 15 1.21522581577301 15 2.714285850524902 C 15 4.213346004486084 13.99263954162598 5.428575992584229 12.75 5.428575992584229 Z"/>
    </g>
    <g id="Rectangle_37" data-name="Rectangle 37" class="cls-9" transform="translate(115 476.572)">
      <rect class="cls-12" width="22.5" height="5.429" rx="2.714"/>
      <rect class="cls-13" x="0.5" y="0.5" width="21.5" height="4.429" rx="2.214"/>
    </g>
  </g>
</svg>
