<svg xmlns="http://www.w3.org/2000/svg" viewBox="656.701 3767 521.299 326">
  <defs>
    <style>
      .cls-1, .cls-9 {
        fill: #e8c4aa;
      }

      .cls-2 {
        fill: #c4c4c4;
      }

      .cls-10, .cls-11, .cls-12, .cls-13, .cls-2, .cls-3, .cls-4, .cls-5, .cls-6, .cls-7, .cls-9 {
        stroke: #46494c;
      }

      .cls-10, .cls-12, .cls-13, .cls-2, .cls-3, .cls-4, .cls-5, .cls-6, .cls-7, .cls-9 {
        stroke-width: 4px;
      }

      .cls-3 {
        fill: #48e5c2;
      }

      .cls-4 {
        fill: #1985a1;
      }

      .cls-5 {
        fill: #ed9390;
      }

      .cls-6 {
        fill: #a9e5bb;
      }

      .cls-7 {
        fill: #f1fffa;
      }

      .cls-8 {
        fill: #fff067;
      }

      .cls-10 {
        fill: #fff;
      }

      .cls-11, .cls-13, .cls-15 {
        fill: #46494c;
      }

      .cls-11 {
        stroke-width: 2px;
      }

      .cls-12 {
        fill: #c89b7b;
      }

      .cls-14, .cls-15 {
        stroke: none;
      }

      .cls-16 {
        fill: none;
      }
    </style>
  </defs>
  <g id="Symbol_8_1" data-name="Symbol 8 – 1" transform="translate(0 3560)">
    <g id="Path_8" data-name="Path 8" class="cls-1" transform="translate(695 347)">
      <path class="cls-14" d="M 481 24 L 2 24 L 2 2 L 481 2 L 481 24 Z"/>
      <path class="cls-15" d="M 479 22 L 479 4 L 4 4 L 4 22 L 479 22 M 483 26 L 0 26 L 0 0 L 483 0 L 483 26 Z"/>
    </g>
    <g id="Rectangle_16" data-name="Rectangle 16" class="cls-2" transform="translate(833 207)">
      <rect class="cls-14" width="200" height="120" rx="6"/>
      <rect class="cls-16" x="2" y="2" width="196" height="116" rx="4"/>
    </g>
    <g id="Rectangle_17" data-name="Rectangle 17" class="cls-3" transform="translate(733 247)">
      <rect class="cls-14" width="20" height="100" rx="2"/>
      <rect class="cls-16" x="2" y="2" width="16" height="96"/>
    </g>
    <g id="Rectangle_18" data-name="Rectangle 18" class="cls-4" transform="translate(756 267)">
      <rect class="cls-14" width="20" height="80" rx="2"/>
      <rect class="cls-16" x="2" y="2" width="16" height="76"/>
    </g>
    <g id="Rectangle_19" data-name="Rectangle 19" class="cls-5" transform="translate(779 227)">
      <rect class="cls-14" width="18" height="120" rx="2"/>
      <rect class="cls-16" x="2" y="2" width="14" height="116"/>
    </g>
    <g id="Rectangle_20" data-name="Rectangle 20" class="cls-2" transform="translate(903 327)">
      <rect class="cls-14" width="60" height="20" rx="6"/>
      <rect class="cls-16" x="2" y="2" width="56" height="16" rx="4"/>
    </g>
    <path id="Path_6" data-name="Path 6" class="cls-6" d="M1915.974,1911.406l10.949-18.462s12.957,23.824,12.4,35.023-3.756,23.033-10.6,36.086-6.019,10.9-6.019,10.9-5.881-18.248-4.464-18.466" transform="translate(-810 -1672)"/>
    <path id="Path_5" data-name="Path 5" class="cls-7" d="M1910,1895.3s-20.453,23.986-12,45.311,17.88,33.369,17.88,33.369,6.25-28.678,4.044-44.855S1910,1895.3,1910,1895.3Z" transform="translate(-810 -1672)"/>
    <rect id="Rectangle_21" data-name="Rectangle 21" class="cls-8" width="79" height="10" transform="translate(1069 295)"/>
    <g id="Path_9" data-name="Path 9" class="cls-1" transform="translate(755 373)">
      <path class="cls-14" d="M 18 158 L 2 158 L 2 2 L 18 2 L 18 158 Z"/>
      <path class="cls-15" d="M 16 156 L 16 4 L 4 4 L 4 156 L 16 156 M 20 160 L 0 160 L 0 0 L 20 0 L 20 160 Z"/>
    </g>
    <g id="Rectangle_23" data-name="Rectangle 23" class="cls-9" transform="translate(1098 373)">
      <rect class="cls-14" width="20" height="160"/>
      <rect class="cls-16" x="2" y="2" width="16" height="156"/>
    </g>
    <g id="Rectangle_26" data-name="Rectangle 26" class="cls-10" transform="translate(843 217)">
      <rect class="cls-14" width="180" height="100"/>
      <rect class="cls-16" x="2" y="2" width="176" height="96"/>
    </g>
    <rect id="Rectangle_24" data-name="Rectangle 24" class="cls-5" width="24" height="24" rx="2" transform="translate(848.033 310.016) rotate(17)"/>
    <g id="Rectangle_28" data-name="Rectangle 28" class="cls-11" transform="translate(966 229)">
      <rect class="cls-14" width="42" height="77" rx="4"/>
      <rect class="cls-16" x="1" y="1" width="40" height="75" rx="3"/>
    </g>
    <rect id="Rectangle_25" data-name="Rectangle 25" class="cls-3" width="24" height="24" rx="2" transform="translate(868.033 310.016) rotate(17)"/>
    <g id="Rectangle_27" data-name="Rectangle 27" class="cls-12" transform="translate(695 356)">
      <rect class="cls-14" width="483" height="26"/>
      <rect class="cls-16" x="2" y="2" width="479" height="22"/>
    </g>
    <g id="Rectangle_29" data-name="Rectangle 29" class="cls-11" transform="translate(856 229)">
      <rect class="cls-14" width="102" height="77" rx="4"/>
      <rect class="cls-16" x="1" y="1" width="100" height="75" rx="3"/>
    </g>
    <path id="Path_17" data-name="Path 17" class="cls-5" d="M1164.731,3842.775h54.625l-3.088,10.641-48.738-.318Z" transform="translate(-84 -3547.775)"/>
    <path id="Path_18" data-name="Path 18" class="cls-5" d="M1170.151,3865h46.036l-8.975,34.063h-28.374Z" transform="translate(-84.788 -3552.56)"/>
    <path id="Path_19" data-name="Path 19" class="cls-13" d="M659.119,4015.721h80.153l-2.49,12.241H661.453Z" transform="translate(0 -3556)"/>
    <path id="Path_20" data-name="Path 20" class="cls-13" d="M663.321,4037.431H735.38l-2.8,15.256H666.434Z" transform="translate(0 -3556)"/>
    <path id="Path_21" data-name="Path 21" class="cls-13" d="M668.872,4066.627h61.372l-4.358,23.021h-52.6Z" transform="translate(0 -3560)"/>
  </g>
</svg>
