<svg xmlns="http://www.w3.org/2000/svg" xmlns:xlink="http://www.w3.org/1999/xlink" viewBox="1487.448 267.309 203.104 38.433">
  <defs>
    <style>
      .cls-1 {
        fill: none;
        stroke: #fff;
        stroke-width: 4px;
      }

      .cls-2 {
        filter: url(#middle);
      }

      .cls-3 {
        filter: url(#Path_27-6);
      }

      .cls-4 {
        filter: url(#Path_27-5);
      }

      .cls-5 {
        filter: url(#Path_27-4);
      }

      .cls-6 {
        filter: url(#Path_27-3);
      }

      .cls-7 {
        filter: url(#Path_27-2);
      }

      .cls-8 {
        filter: url(#Path_27);
      }
    </style>
    <filter id="Path_27" x="1487.448" y="267.309" width="47.104" height="38.433" filterUnits="userSpaceOnUse">
      <feOffset dy="3" input="SourceAlpha"/>
      <feGaussianBlur stdDeviation="3" result="blur"/>
      <feFlood flood-opacity="0.161"/>
      <feComposite operator="in" in2="blur"/>
      <feComposite in="SourceGraphic"/>
    </filter>
    <filter id="Path_27-2" x="1513.448" y="267.309" width="47.104" height="38.433" filterUnits="userSpaceOnUse">
      <feOffset dy="3" input="SourceAlpha"/>
      <feGaussianBlur stdDeviation="3" result="blur-2"/>
      <feFlood flood-opacity="0.161"/>
      <feComposite operator="in" in2="blur-2"/>
      <feComposite in="SourceGraphic"/>
    </filter>
    <filter id="Path_27-3" x="1539.448" y="267.309" width="47.104" height="38.433" filterUnits="userSpaceOnUse">
      <feOffset dy="3" input="SourceAlpha"/>
      <feGaussianBlur stdDeviation="3" result="blur-3"/>
      <feFlood flood-opacity="0.161"/>
      <feComposite operator="in" in2="blur-3"/>
      <feComposite in="SourceGraphic"/>
    </filter>
    <filter id="Path_27-4" x="1643.448" y="267.309" width="47.104" height="38.433" filterUnits="userSpaceOnUse">
      <feOffset dy="3" input="SourceAlpha"/>
      <feGaussianBlur stdDeviation="3" result="blur-4"/>
      <feFlood flood-opacity="0.161"/>
      <feComposite operator="in" in2="blur-4"/>
      <feComposite in="SourceGraphic"/>
    </filter>
    <filter id="Path_27-5" x="1617.448" y="267.309" width="47.104" height="38.433" filterUnits="userSpaceOnUse">
      <feOffset dy="3" input="SourceAlpha"/>
      <feGaussianBlur stdDeviation="3" result="blur-5"/>
      <feFlood flood-opacity="0.161"/>
      <feComposite operator="in" in2="blur-5"/>
      <feComposite in="SourceGraphic"/>
    </filter>
    <filter id="Path_27-6" x="1591.448" y="267.309" width="47.104" height="38.433" filterUnits="userSpaceOnUse">
      <feOffset dy="3" input="SourceAlpha"/>
      <feGaussianBlur stdDeviation="3" result="blur-6"/>
      <feFlood flood-opacity="0.161"/>
      <feComposite operator="in" in2="blur-6"/>
      <feComposite in="SourceGraphic"/>
    </filter>
    <filter id="middle" x="1565.448" y="267.309" width="47.104" height="38.433" filterUnits="userSpaceOnUse">
      <feOffset dy="3" input="SourceAlpha"/>
      <feGaussianBlur stdDeviation="3" result="blur-7"/>
      <feFlood flood-opacity="0.161"/>
      <feComposite operator="in" in2="blur-7"/>
      <feComposite in="SourceGraphic"/>
    </filter>
  </defs>
  <g id="pattern" transform="translate(1450 29)">
    <g class="cls-8" transform="matrix(1, 0, 0, 1, -1450, -29)">
      <path id="Path_27-7" data-name="Path 27" class="cls-1" d="M1487,289.48l13-16,13,16" transform="translate(11 3)"/>
    </g>
    <g class="cls-7" transform="matrix(1, 0, 0, 1, -1450, -29)">
      <path id="Path_27-8" data-name="Path 27" class="cls-1" d="M1487,289.48l13-16,13,16" transform="translate(37 3)"/>
    </g>
    <g class="cls-6" transform="matrix(1, 0, 0, 1, -1450, -29)">
      <path id="Path_27-9" data-name="Path 27" class="cls-1" d="M1487,289.48l13-16,13,16" transform="translate(63 3)"/>
    </g>
    <g class="cls-5" transform="matrix(1, 0, 0, 1, -1450, -29)">
      <path id="Path_27-10" data-name="Path 27" class="cls-1" d="M1487,289.48l13-16,13,16" transform="translate(167 3)"/>
    </g>
    <g class="cls-4" transform="matrix(1, 0, 0, 1, -1450, -29)">
      <path id="Path_27-11" data-name="Path 27" class="cls-1" d="M1487,289.48l13-16,13,16" transform="translate(141 3)"/>
    </g>
    <g class="cls-3" transform="matrix(1, 0, 0, 1, -1450, -29)">
      <path id="Path_27-12" data-name="Path 27" class="cls-1" d="M1487,289.48l13-16,13,16" transform="translate(115 3)"/>
    </g>
    <g class="cls-2" transform="matrix(1, 0, 0, 1, -1450, -29)">
      <path id="middle-2" data-name="middle" class="cls-1" d="M1487,289.48l13-16,13,16" transform="translate(89 3)"/>
    </g>
  </g>
</svg>
